<?xml version="1.0" ?><svg fill="none" height="24" viewBox="0 0 24 24" width="24" xmlns="http://www.w3.org/2000/svg"><path clip-rule="evenodd" d="M15.0945 4.05114C13.0515 3.64962 10.9485 3.64962 8.90552 4.05114C7.06522 4.41282 5.75 6.00581 5.75 7.84496V19.2674C5.75 20.0112 6.5789 20.5045 7.25848 20.1112L10.4454 18.2668C11.406 17.7109 12.594 17.7109 13.5546 18.2668L16.7415 20.1112C17.4211 20.5045 18.25 20.0112 18.25 19.2674V7.84496C18.25 6.00581 16.9348 4.41282 15.0945 4.05114ZM8.61625 2.5793C10.8502 2.14024 13.1498 2.14023 15.3837 2.5793C17.9159 3.07695 19.75 5.27714 19.75 7.84496V19.2674C19.75 21.1964 17.6438 22.3665 15.9902 21.4095L12.8032 19.565C12.3075 19.2781 11.6925 19.2781 11.1968 19.565L8.00984 21.4095C6.35615 22.3665 4.25 21.1964 4.25 19.2674V7.84496C4.25 5.27714 6.08412 3.07695 8.61625 2.5793Z" fill="black" fill-rule="evenodd"/></svg>